<?xml version="1.0" encoding="utf-8"?>
<!-- Generator: Adobe Illustrator 27.2.0, SVG Export Plug-In . SVG Version: 6.00 Build 0)  -->
<svg version="1.1" id="レイヤー_1" xmlns="http://www.w3.org/2000/svg" xmlns:xlink="http://www.w3.org/1999/xlink" x="0px"
	 y="0px" viewBox="0 0 141.7 141.7" style="enable-background:new 0 0 141.7 141.7;" xml:space="preserve">
<style type="text/css">
	.st0{fill:none;}
</style>
<rect x="-329.1" y="-329.1" class="st0" width="800" height="800"/>
<path d="M71,1.8C32,1.7,0.1,33.2,0,72.3c-0.1,30.7,19.5,57.9,48.7,67.5c3.5,0.6,4.7-1.6,4.7-3.5v-12c-19.6,4.2-23.8-9.3-23.8-9.3
	c-1.3-4.4-4.2-8.2-8.1-10.6c-6.4-4.4,0.5-4.2,0.5-4.2c4.5,0.6,8.5,3.2,10.8,7.1c4.1,7.3,13.3,9.9,20.6,5.9c0.3-3.6,1.9-6.9,4.5-9.5
	c-15.1-1.6-32-7.6-32-34.6c-0.2-7.1,2.3-14,7.1-19.2c-2.2-6.1-1.9-12.8,0.7-18.7c0,0,5.9-1.9,19.5,7.1c11.6-3.1,23.8-3.1,35.4,0
	c13.5-9.1,19.5-7.1,19.5-7.1c2.6,5.9,2.9,12.6,0.7,18.7c4.7,5.2,7.3,12.1,7.1,19.2c0,27-16.6,33-32.3,34.7c3.4,3.5,5.2,8.2,4.9,13.1
	v19.4c0,1.9,1.1,4.2,4.7,3.5c37.1-12.2,57.3-52.2,45.1-89.3C128.6,21.5,101.6,1.9,71,1.8z"/>
</svg>
