<?xml version="1.0" encoding="utf-8"?>
<!-- Generator: Adobe Illustrator 27.2.0, SVG Export Plug-In . SVG Version: 6.00 Build 0)  -->
<svg version="1.1" id="Layer_1" xmlns="http://www.w3.org/2000/svg" xmlns:xlink="http://www.w3.org/1999/xlink" x="0px" y="0px"
	 viewBox="0 0 141.7 141.7" style="enable-background:new 0 0 141.7 141.7;" xml:space="preserve">
<g>
	<path d="M70.9,83.3c6.9,0,12.5-5.6,12.5-12.5c0-2.7-0.9-5.2-2.4-7.3c-2.3-3.1-6-5.2-10.1-5.2c-4.2,0-7.8,2-10.1,5.2
		c-1.5,2-2.4,4.6-2.4,7.3C58.4,77.7,64,83.3,70.9,83.3z"/>
	<polygon points="98.1,55.6 98.1,45.1 98.1,43.6 96.6,43.6 86.1,43.6 86.1,55.6 	"/>
	<path d="M90.2,70.9c0,10.7-8.7,19.4-19.4,19.4s-19.4-8.7-19.4-19.4c0-2.6,0.5-5,1.4-7.3H42.4v29c0,3.7,3,6.8,6.8,6.8h43.5
		c3.7,0,6.8-3,6.8-6.8v-29H88.8C89.7,65.8,90.2,68.3,90.2,70.9z"/>
	<path d="M70.9,0C31.7,0,0,31.7,0,70.9s31.7,70.9,70.9,70.9s70.9-31.7,70.9-70.9S110,0,70.9,0z M106.3,63.6v29
		c0,7.6-6.1,13.7-13.7,13.7H49.1c-7.6,0-13.7-6.1-13.7-13.7v-29V49.1c0-7.6,6.1-13.7,13.7-13.7h43.5c7.6,0,13.7,6.1,13.7,13.7V63.6z
		"/>
</g>
</svg>
