<?xml version="1.0" encoding="utf-8"?>
<!-- Generator: Adobe Illustrator 27.2.0, SVG Export Plug-In . SVG Version: 6.00 Build 0)  -->
<svg version="1.1" id="Layer_1" xmlns="http://www.w3.org/2000/svg" xmlns:xlink="http://www.w3.org/1999/xlink" x="0px" y="0px"
	 viewBox="0 0 141.7 141.7" style="enable-background:new 0 0 141.7 141.7;" xml:space="preserve">
<path d="M70.9,0C31.7,0,0,31.7,0,70.9s31.7,70.9,70.9,70.9s70.9-31.7,70.9-70.9S110,0,70.9,0z M99.2,59.8c0,0.6,0,1.2,0,1.9
	c0,19.2-14.6,41.4-41.4,41.4c-8.2,0-15.9-2.4-22.3-6.5c1.1,0.1,2.3,0.2,3.5,0.2c6.8,0,13.1-2.3,18.1-6.2
	c-6.4-0.1-11.8-4.3-13.6-10.1c0.9,0.2,1.8,0.2,2.7,0.2c1.3,0,2.6-0.2,3.8-0.5c-6.7-1.3-11.7-7.2-11.7-14.3v-0.2
	c2,1.1,4.2,1.7,6.6,1.8c-3.9-2.6-6.5-7.1-6.5-12.1c0-2.7,0.7-5.2,2-7.3c7.2,8.8,17.9,14.6,30,15.2C70.1,62.3,70,61.2,70,60
	c0-8,6.5-14.6,14.6-14.6c4.2,0,8,1.8,10.6,4.6c3.3-0.7,6.4-1.9,9.2-3.5c-1.1,3.4-3.4,6.3-6.4,8.1c2.9-0.4,5.8-1.1,8.4-2.3
	C104.5,55.2,102,57.8,99.2,59.8z"/>
</svg>
